<svg id="SvgjsSvg1011" width="288" height="288" xmlns="http://www.w3.org/2000/svg" version="1.1" xmlns:xlink="http://www.w3.org/1999/xlink" xmlns:svgjs="http://svgjs.com/svgjs"><defs id="SvgjsDefs1012"></defs><g id="SvgjsG1013"><svg xmlns="http://www.w3.org/2000/svg" enable-background="new 0 0 1000 1000" viewBox="0 0 1000 1000" width="288" height="288"><path d="M868.2,818.8v-77H913V123.7H294.9v44.8h-77V46.7H990v772.1H868.2z" fill="#6f6f6f" class="color000 svgShape"></path><path d="M234,62.8v89.7h44.8v-44.8h650.3v650.3h-44.8v44.8h89.7V62.8H234z" fill="#6f6f6f" class="color000 svgShape"></path><path d="M318.8,953.3v-77h470.9V258.2H171.6v381.2h-77V181.2h772.1v772.1H318.8z" fill="#6f6f6f" class="color000 svgShape"></path><path d="M110.7,197.3v426h44.8V242.1h650.3v650.3H334.9v44.8h515.7v-740H110.7z" fill="#6f6f6f" class="color000 svgShape"></path><path d="M163.3,825.1l61.8-61.6c11.4-11.4,11.5-30,0.3-41.5c-11.3-11.5-29.7-11.7-41.1-0.3l-62.3,62.2l-62.4-62.2c-11.4-11.4-29.8-11.3-41.1,0.3c-11.3,11.5-11.2,30.1,0.3,41.5l61.8,61.6l-61.8,61.6c-11.4,11.4-11.5,30-0.3,41.5c11.3,11.5,29.7,11.7,41.1,0.3l62.4-62.2l62.3,62.2c11.4,11.4,29.9,11.3,41.1-0.3c11.3-11.5,11.2-30.1-0.3-41.5L163.3,825.1L163.3,825.1z" fill="#6f6f6f" class="color000 svgShape"></path></svg></g></svg>