<svg id="SvgjsSvg1025" width="288" height="288" xmlns="http://www.w3.org/2000/svg" version="1.1" xmlns:xlink="http://www.w3.org/1999/xlink" xmlns:svgjs="http://svgjs.com/svgjs"><defs id="SvgjsDefs1026"></defs><g id="SvgjsG1027"><svg xmlns="http://www.w3.org/2000/svg" enable-background="new 0 0 1000 1000" viewBox="0 0 1000 1000" width="288" height="288"><path d="M928.7 628.1c-37.2-53.6-87.3-93.9-145.6-117.1 25.8-18.1 47.4-42.2 62.9-70.4 18.1-32.5 27.6-69.8 27.6-107.6 0-117.9-91.3-214-203.6-214-16 0-28.9 13-28.9 28.9 0 16 13 28.9 28.9 28.9 80.3 0 145.7 70 145.7 156.1 0 86.1-65.4 156.1-145.7 156.1-16 0-28.9 13-28.9 28.9v.1c0 16 13 28.9 28.9 28.9 144.6 0 262.1 125.4 262.1 279.5 0 16 13 28.9 28.9 28.9 16 0 28.9-13 28.9-28.9C990.1 754.9 968.8 686.2 928.7 628.1L928.7 628.1 928.7 628.1zM629.7 579c-30.4-21.5-63.4-38.4-98.3-50.5 73.7-44.8 119.1-124.6 119.1-211.2C650.5 180.9 539.6 70 403.2 70 266.9 70 156 180.9 156 317.3c0 46.4 13 91.7 37.6 130.9 20.7 33.1 49.1 60.9 82.5 81.1-35.6 12.1-69.1 29.2-99.9 51.1-33.5 23.8-63.1 52.6-87.8 85.4C37.1 734 10 815.5 10 901c0 16 13 28.9 28.9 28.9 16 0 28.9-13 28.9-28.9 0-89.3 34.8-173.2 97.9-236.7 63.1-63.2 146.4-98.2 234.8-98.2 2.9.3 5.9 0 8.8-.6l2.3-.6c86.1 1.7 167 36.4 228.5 98.2 63.2 63.4 97.9 147.4 97.9 236.7 0 16 13 28.9 28.9 28.9 16 0 28.9-13 28.9-28.9 0-85.5-27.1-166.9-78.5-235.3C692.9 631.6 663.3 602.8 629.7 579L629.7 579 629.7 579zM403.4 127.9c104.4 0 189.3 85 189.3 189.3 0 104.4-85 189.3-189.3 189.3C299 506.6 214 421.7 214 317.3 214 212.9 299 127.9 403.4 127.9L403.4 127.9 403.4 127.9z" fill="#6f6f6f" class="color000 svgShape"></path></svg></g></svg>